<?xml version="1.0" standalone="no"?>
<!DOCTYPE svg PUBLIC "-//W3C//DTD SVG 20010904//EN"
 "http://www.w3.org/TR/2001/REC-SVG-20010904/DTD/svg10.dtd">
<svg version="1.0" xmlns="http://www.w3.org/2000/svg"
 width="350.792256pt" height="142.382759pt" viewBox="0 0 350.792256 142.382759"
 preserveAspectRatio="xMidYMid meet">
<metadata>
Created by potrace 1.12, written by Peter Selinger 2001-2015
</metadata>
<g transform="translate(-23.207744,198.382759) scale(0.100000,-0.100000)"
fill="#000000" stroke="none">
<path d="M2207 1972 c-15 -17 -39 -82 -52 -140 -12 -56 -75 -70 -75 -17 0 29
-49 85 -73 85 -7 0 -22 -15 -32 -34 -16 -29 -17 -39 -7 -61 7 -14 12 -32 12
-38 0 -15 -46 -33 -107 -43 -24 -4 -51 -13 -60 -21 -16 -13 -15 -14 17 -10 19
2 89 18 154 36 80 21 123 28 130 21 19 -19 -8 -30 -189 -78 -77 -21 -89 -36
-53 -69 21 -19 29 -20 88 -12 36 5 73 14 82 19 23 13 45 13 53 0 8 -13 -22
-179 -47 -263 -16 -53 -24 -67 -37 -63 -12 4 -26 -14 -56 -76 -39 -81 -97
-161 -176 -246 -33 -35 -44 -41 -55 -31 -17 14 -12 54 21 155 28 85 56 141
130 264 54 90 55 91 38 115 -10 13 -30 30 -45 39 -24 15 -28 15 -42 0 -9 -8
-16 -26 -16 -40 0 -13 -11 -45 -25 -71 -13 -27 -42 -93 -63 -147 -40 -105 -69
-140 -56 -70 4 22 14 49 21 61 8 12 13 28 10 35 -3 9 -7 6 -12 -7 -47 -129
-222 -409 -250 -399 -8 4 -15 7 -15 8 0 24 34 235 45 276 57 222 54 271 -18
291 -32 8 -42 8 -45 -1 -5 -15 -16 -24 -105 -93 -43 -33 -84 -78 -114 -122
-78 -116 -172 -334 -197 -456 -17 -85 -41 -94 -34 -13 10 109 98 317 200 475
48 73 133 166 171 186 22 11 26 17 17 23 -41 25 -162 -107 -258 -280 -10 -19
-33 -60 -50 -90 -35 -63 -85 -209 -100 -289 -13 -73 -2 -106 56 -169 42 -46
53 -52 87 -52 34 0 45 6 84 49 26 27 66 81 91 120 25 38 52 70 60 70 8 1 33
-17 56 -40 31 -30 52 -42 83 -46 48 -7 67 7 122 88 19 27 41 49 50 49 8 0 28
-13 43 -29 69 -72 121 -61 211 47 33 39 66 73 74 76 8 4 33 -12 62 -39 66 -61
91 -60 144 5 22 27 47 49 57 50 9 0 35 -16 58 -35 49 -41 94 -46 133 -15 13
11 49 51 78 90 38 49 60 70 76 70 12 0 23 -4 25 -9 2 -4 25 -27 52 -50 58 -50
68 -50 158 12 60 41 236 221 250 255 4 9 10 43 13 74 5 43 11 58 25 63 10 3
21 17 24 30 4 16 19 30 41 39 31 13 35 19 35 50 0 29 4 36 20 36 13 0 24 10
30 26 8 21 13 24 25 14 8 -6 19 -9 25 -5 14 9 13 -28 -1 -42 -9 -9 2 -30 45
-87 94 -122 89 -182 -22 -288 -37 -35 -80 -73 -96 -85 -30 -20 -30 -21 -12
-48 16 -24 22 -27 57 -21 37 6 39 5 29 -13 -36 -69 97 19 175 116 25 30 63 85
84 122 22 36 48 75 60 85 12 11 21 30 21 43 0 13 7 26 15 29 15 6 21 54 7 54
-12 0 -50 -43 -91 -102 -20 -28 -40 -52 -45 -52 -4 -1 -14 16 -21 38 -7 21
-25 50 -38 65 -43 45 -87 124 -87 154 0 29 32 85 57 100 24 15 13 44 -27 71
-50 33 -69 33 -100 -1 -33 -35 -120 -150 -120 -157 0 -12 -360 -364 -418 -410
-67 -52 -94 -61 -100 -34 -4 18 97 277 135 345 27 48 29 76 8 93 -21 17 -42 6
-66 -35 -24 -41 -37 -41 -59 1 -17 32 -90 73 -131 74 -57 1 -118 -31 -168 -86
-47 -54 -105 -159 -131 -239 -24 -72 -143 -255 -167 -255 -27 0 -14 55 87 345
22 66 48 149 56 185 22 93 33 106 101 120 32 6 110 26 173 45 201 58 340 88
365 79 18 -7 51 57 42 80 -12 32 -54 29 -219 -17 -204 -57 -332 -88 -380 -94
l-38 -5 0 96 c0 83 -2 97 -19 105 -14 8 -22 6 -34 -7z m215 -454 c-18 -16 -36
-27 -40 -23 -4 4 8 20 27 36 45 37 55 27 13 -13z m191 -27 c12 -12 -3 -40 -24
-46 -10 -4 -22 -18 -25 -33 -11 -53 -63 -161 -102 -214 -71 -96 -129 -154
-142 -142 -17 17 21 136 83 262 42 87 59 111 105 148 53 43 78 49 105 25z
m-1243 -210 c0 -81 -124 -333 -239 -486 -88 -117 -109 -114 -67 11 35 103 122
285 167 351 65 95 139 160 139 124z m2020 -64 c0 -7 -13 -26 -30 -42 -25 -24
-30 -26 -36 -12 -4 11 4 25 23 41 32 29 43 32 43 13z m-2109 -284 c-26 -49
-60 -92 -61 -75 0 26 71 143 77 125 2 -6 -5 -29 -16 -50z"/>
<path d="M860 1964 c-62 -17 -104 -43 -170 -107 -132 -129 -212 -243 -315
-452 -77 -156 -105 -227 -105 -265 0 -27 17 4 50 90 45 120 145 309 221 417
76 108 201 243 226 243 12 0 4 -13 -28 -47 -56 -60 -133 -153 -142 -173 -4 -8
-25 -42 -46 -75 -64 -97 -95 -162 -155 -313 -68 -171 -99 -297 -101 -410 -2
-86 -7 -104 -28 -83 -8 8 -12 50 -12 129 0 68 -4 118 -10 120 -14 3 -18 -200
-4 -250 12 -47 82 -123 164 -179 45 -31 57 -34 120 -34 59 0 78 4 120 29 154
91 289 284 365 521 18 54 16 172 -3 216 -22 53 -132 112 -151 81 -3 -4 -31
-21 -63 -37 -32 -16 -64 -35 -70 -41 -7 -7 -49 -36 -93 -65 -44 -29 -80 -56
-80 -60 0 -3 11 -4 25 -1 31 5 34 -17 5 -35 -11 -7 -26 -26 -35 -43 -15 -29
-15 -31 11 -55 15 -14 30 -25 34 -25 4 0 45 30 91 67 85 67 196 143 209 143
42 0 -37 -225 -117 -335 -51 -70 -132 -153 -195 -200 -53 -40 -66 -45 -112
-45 -64 0 -97 27 -116 94 -18 64 -9 137 34 287 34 119 164 409 187 417 5 2 9
8 9 14 0 48 259 310 343 349 112 50 182 6 208 -131 7 -36 19 -75 27 -88 8 -12
22 -57 31 -99 12 -58 20 -79 34 -81 15 -3 17 6 17 73 0 77 -30 226 -56 277
-25 49 -94 109 -157 137 -85 39 -104 41 -167 25z m80 -777 c-6 -18 -18 -54
-25 -82 -27 -95 -127 -266 -194 -329 -44 -42 -49 -25 -9 31 135 187 164 240
199 371 12 43 24 82 28 87 11 19 13 -46 1 -78z"/>
<path d="M2660 1925 c-47 -13 -113 -29 -148 -36 -61 -13 -106 -39 -67 -39 30
0 194 41 285 71 68 22 78 27 50 27 -19 0 -73 -10 -120 -23z"/>
<path d="M3696 1568 c-17 -24 -21 -58 -8 -58 15 0 52 46 52 63 0 24 -26 21
-44 -5z"/>
<path d="M3230 1553 c0 -10 -27 -47 -60 -83 -57 -62 -75 -100 -47 -100 21 0
33 13 71 80 21 36 44 69 52 73 19 11 18 47 -1 47 -8 0 -15 -8 -15 -17z"/>
</g>
</svg>
